<?xml version="1.0" standalone="no"?>
<!DOCTYPE svg PUBLIC "-//W3C//DTD SVG 20010904//EN"
 "http://www.w3.org/TR/2001/REC-SVG-20010904/DTD/svg10.dtd">
<svg version="1.0" xmlns="http://www.w3.org/2000/svg"
 width="530.000000pt" height="530.000000pt" viewBox="0 0 530.000000 530.000000"
 preserveAspectRatio="xMidYMid meet">
<metadata>
Created by potrace 1.14, written by Peter Selinger 2001-2017
</metadata>
<g transform="translate(0.000000,530.000000) scale(0.100000,-0.100000)"
fill="#000000" stroke="none">
<path d="M3576 4178 c-6 -4 -32 -9 -56 -13 -25 -3 -54 -7 -65 -9 -11 -2 -33
-8 -49 -15 -16 -6 -37 -13 -46 -14 -10 -2 -25 -8 -32 -15 -8 -6 -18 -9 -21 -5
-4 3 -7 1 -7 -6 0 -7 -4 -9 -10 -6 -5 3 -10 1 -10 -5 0 -6 -4 -8 -10 -5 -5 3
-10 1 -10 -4 0 -6 -6 -11 -13 -11 -8 0 -24 -9 -37 -20 -13 -11 -29 -20 -37
-20 -7 0 -13 -4 -13 -10 0 -5 -6 -10 -14 -10 -8 0 -21 -7 -30 -15 -8 -9 -19
-15 -23 -14 -4 1 -17 -1 -28 -5 -57 -22 -74 -26 -120 -29 -64 -5 -142 15 -231
58 -40 19 -77 35 -83 35 -6 0 -11 5 -11 11 0 5 -4 7 -10 4 -5 -3 -10 -1 -10 4
0 6 -3 10 -7 9 -5 -1 -30 9 -58 21 -27 12 -61 24 -75 27 -14 2 -51 9 -83 14
-32 6 -62 8 -67 5 -5 -3 -11 -2 -14 3 -5 9 -74 8 -114 -2 -13 -3 -51 -7 -86
-10 -34 -3 -75 -10 -89 -15 -15 -6 -31 -10 -35 -9 -4 1 -20 -4 -37 -11 -16 -7
-34 -14 -40 -16 -43 -13 -55 -19 -55 -27 0 -5 -4 -7 -9 -3 -5 3 -16 -1 -24 -9
-8 -8 -17 -12 -21 -9 -3 4 -6 1 -6 -5 0 -7 -7 -12 -15 -12 -8 0 -15 -4 -15
-10 0 -5 -7 -10 -15 -10 -8 0 -15 -5 -15 -11 0 -5 -4 -7 -10 -4 -5 3 -10 1
-10 -4 0 -6 -6 -11 -14 -11 -8 0 -16 -4 -18 -9 -1 -5 -10 -11 -18 -13 -8 -2
-21 -11 -28 -20 -7 -10 -20 -18 -28 -18 -8 0 -14 -3 -14 -7 0 -5 -18 -17 -40
-27 -22 -11 -40 -23 -40 -28 0 -4 -6 -8 -14 -8 -8 0 -17 -7 -20 -16 -3 -8 -10
-12 -16 -9 -6 3 -13 0 -16 -9 -3 -8 -19 -18 -36 -21 -16 -4 -27 -10 -24 -13 6
-5 -23 -26 -99 -74 -31 -20 -115 -107 -115 -120 0 -6 -3 -8 -6 -5 -8 7 -80
-103 -76 -115 1 -5 -2 -8 -7 -8 -5 0 -16 -16 -23 -36 -11 -30 -24 -41 -90 -74
-42 -21 -74 -41 -71 -44 4 -3 1 -6 -5 -6 -25 0 -130 -120 -124 -140 3 -8 1
-12 -3 -8 -4 4 -21 -19 -37 -52 -16 -33 -28 -61 -26 -62 1 -2 -7 -17 -20 -35
-12 -17 -22 -36 -22 -42 0 -7 -9 -30 -20 -51 -11 -22 -17 -40 -13 -40 5 0 3
-4 -2 -8 -13 -8 -80 -166 -86 -200 0 -4 -6 -16 -12 -27 -13 -23 -12 -20 -22
-63 -4 -18 -12 -35 -16 -38 -5 -3 -9 -15 -9 -28 0 -12 -3 -25 -6 -29 -6 -6
-15 -73 -18 -134 0 -18 -5 -33 -9 -33 -4 0 -3 -8 2 -18 6 -11 6 -24 0 -35 -6
-11 -6 -24 1 -36 7 -14 7 -22 0 -26 -6 -4 -7 -12 -3 -18 5 -7 10 -25 12 -42 3
-35 23 -85 33 -85 5 0 8 -11 8 -25 0 -14 -5 -25 -11 -25 -5 0 -7 -4 -4 -10 3
-5 2 -10 -3 -10 -11 0 -57 -71 -54 -82 1 -5 -2 -8 -8 -8 -5 0 -25 -31 -44 -70
-20 -38 -33 -70 -30 -70 2 0 -1 -12 -9 -27 -7 -16 -13 -40 -12 -55 0 -16 -2
-28 -6 -28 -4 0 -8 -8 -8 -17 -1 -36 -7 -72 -13 -78 -4 -4 -4 -13 -1 -21 3 -8
1 -20 -4 -27 -10 -14 -9 -174 1 -198 4 -9 6 -22 4 -30 -2 -8 3 -13 10 -12 6 2
12 -3 12 -10 0 -7 10 -22 23 -33 25 -22 98 -59 110 -56 4 1 7 -3 7 -9 0 -5 4
-8 8 -5 5 3 27 -2 51 -10 23 -8 47 -12 52 -9 5 4 9 1 9 -5 0 -6 8 -10 18 -8 9
1 23 -1 30 -6 7 -4 29 -10 50 -13 20 -3 46 -6 57 -8 11 -1 20 -3 20 -4 0 -4
35 -10 75 -15 19 -2 42 -6 50 -9 8 -3 31 -8 50 -11 19 -3 54 -10 76 -15 23 -6
62 -13 85 -16 57 -6 72 -9 84 -17 6 -3 27 -5 48 -4 20 0 37 -3 37 -8 0 -4 6
-6 14 -3 8 3 17 3 20 -1 6 -5 40 -10 106 -14 8 0 20 -4 25 -8 6 -3 28 -8 50
-9 22 -2 41 -7 43 -12 2 -5 12 -5 22 1 10 6 21 6 24 2 4 -7 45 -13 119 -16 15
0 27 -3 27 -6 0 -4 10 -7 23 -7 58 -4 292 -30 292 -33 0 -4 62 -9 127 -12 38
-2 68 -5 68 -8 0 -3 19 -6 43 -7 71 -2 147 -10 154 -16 3 -4 14 -2 24 4 11 5
19 6 19 2 0 -4 10 -8 23 -9 62 -2 205 -14 227 -19 14 -3 51 -6 83 -7 31 -1 57
-5 57 -9 0 -7 23 -2 50 11 3 1 21 -4 40 -12 22 -9 45 -12 63 -7 16 4 38 5 50
2 23 -5 75 -9 255 -17 56 -3 106 -7 111 -11 5 -3 12 -1 16 5 4 6 11 7 17 4 6
-4 31 -9 57 -11 25 -2 64 -5 86 -7 22 -2 45 -1 50 3 9 6 53 7 65 1 15 -7 71
-6 76 2 3 4 11 5 17 1 14 -9 217 -13 217 -4 0 3 31 6 70 6 40 0 70 -4 70 -10
0 -6 4 -5 8 1 4 7 45 15 92 19 127 10 190 23 235 48 20 11 26 13 46 16 5 0 7
5 4 11 -3 5 6 12 20 16 14 3 25 12 25 20 0 8 5 14 11 14 5 0 7 4 4 10 -3 5 -2
10 3 10 13 0 28 45 36 110 3 19 5 35 6 35 6 0 8 43 3 55 -3 8 -7 26 -9 40 -2
14 -6 41 -10 60 -4 19 -8 41 -10 47 -1 7 -12 24 -23 39 -12 15 -21 33 -21 41
0 8 -4 11 -10 8 -5 -3 -10 0 -10 8 0 8 -9 22 -20 32 -11 10 -20 23 -20 30 0 6
-27 40 -60 75 -33 35 -60 68 -60 73 0 4 -4 5 -10 2 -5 -3 -10 -1 -10 4 0 6 -5
11 -11 11 -12 0 -40 26 -34 32 6 6 7 70 2 95 -5 20 8 41 26 41 16 1 67 27 67
35 0 5 4 6 8 3 4 -2 34 22 66 55 32 32 55 59 51 59 -5 0 0 9 11 21 15 17 19
35 18 92 -1 40 -7 86 -13 102 -7 17 -13 32 -14 35 -4 10 -105 110 -111 110
-10 0 -39 30 -35 35 2 2 18 5 34 8 17 2 46 10 65 18 19 7 38 12 43 11 4 -1 7
2 7 7 0 8 37 24 53 22 4 -1 7 3 7 8 0 5 9 13 20 16 11 4 18 11 15 16 -4 5 -2
9 3 9 4 0 20 17 34 39 22 34 26 53 19 104 -1 4 -7 7 -14 7 -15 0 -46 49 -64
99 -9 28 -9 41 2 68 8 18 18 33 23 33 5 0 13 8 16 18 13 34 33 62 41 54 5 -4
5 -2 2 4 -13 23 13 70 51 89 20 11 40 24 44 30 4 5 8 6 8 2 0 -4 12 4 27 18
15 14 31 25 35 25 12 0 48 81 48 108 0 14 14 38 35 59 19 19 35 42 35 50 0 8
4 12 8 9 13 -8 7 97 -8 129 -7 17 -15 56 -18 87 -4 58 -13 71 -78 125 -12 10
-29 34 -39 53 -24 46 -117 138 -148 145 -14 4 -34 15 -46 26 -11 11 -24 18
-28 17 -4 -1 -25 6 -47 15 -43 19 -79 29 -113 31 -13 0 -23 4 -23 8 0 3 -8 5
-17 3 -10 -1 -22 0 -28 3 -5 4 -27 8 -48 9 -53 4 -69 15 -92 60 -23 45 -96
117 -136 135 -15 7 -25 16 -23 20 3 4 -2 8 -11 8 -8 0 -23 4 -33 9 -49 26
-185 68 -204 63 -5 -1 -8 2 -8 6 0 5 -15 7 -32 6 -18 -1 -37 1 -43 4 -14 10
-95 9 -95 -1 0 -5 -6 -5 -12 0 -16 10 -75 11 -92 1z"/>
</g>
</svg>
